<?xml version="1.0" encoding="UTF-8"?>
<svg version="1.1" xmlns="http://www.w3.org/2000/svg" width="32" height="32">
<path d="M0 0 C10.56 0 21.12 0 32 0 C32 10.56 32 21.12 32 32 C21.44 32 10.88 32 0 32 C0 21.44 0 10.88 0 0 Z " fill="#F9FAF9" transform="translate(0,0)"/>
<path d="M0 0 C2.60905369 1.88931474 4.12573527 3.54138652 5.8125 6.3125 C6.72175427 12.67727987 6.72175427 12.67727987 4.82421875 16.08984375 C2.57333902 18.94002892 0.31568871 21.28215038 -3.1875 22.3125 C-7.50885899 22.792651 -9.6543367 22.60423086 -13.5 20.5 C-17.07683448 17.5886231 -18.09467163 16.1214329 -18.625 11.5 C-18.50839753 6.62960433 -16.65532137 4.62269313 -13.1875 1.3125 C-9.28776811 -1.54730339 -4.5195727 -1.42043713 0 0 Z " fill="#F1E7E4" transform="translate(22.1875,2.6875)"/>
<path d="M0 0 C2.60905369 1.88931474 4.12573527 3.54138652 5.8125 6.3125 C6.72175427 12.67727987 6.72175427 12.67727987 4.82421875 16.08984375 C2.57333902 18.94002892 0.31568871 21.28215038 -3.1875 22.3125 C-7.50885899 22.792651 -9.6543367 22.60423086 -13.5 20.5 C-17.07683448 17.5886231 -18.09467163 16.1214329 -18.625 11.5 C-18.50839753 6.62960433 -16.65532137 4.62269313 -13.1875 1.3125 C-9.28776811 -1.54730339 -4.5195727 -1.42043713 0 0 Z M-16.1875 6.3125 C-16.87299587 11.11097109 -16.91774216 13.12900408 -14.375 17.25 C-11.56756596 19.89700924 -9.68373347 20.25632263 -5.875 20.6875 C-1.06471035 20.198318 0.68556191 18.97330557 3.8125 15.3125 C4.61931857 12.45405708 4.55822624 10.1797885 3.8125 7.3125 C2.10638912 4.10596424 2.10638912 4.10596424 -1.1875 2.3125 C-6.97286322 1.24078517 -12.43078222 1.30354296 -16.1875 6.3125 Z " fill="#43331D" transform="translate(22.1875,2.6875)"/>
<path d="M0 0 C6.15234375 0.5859375 6.15234375 0.5859375 8 1 C8.33 1.66 8.66 2.32 9 3 C9.99 2.67 10.98 2.34 12 2 C10.79881657 10.92307692 10.79881657 10.92307692 10 13 C7.24921116 13.91692961 5.64051087 14.10886083 2.8125 14.0625 C0.9253125 14.0315625 0.9253125 14.0315625 -1 14 C-1 12.68 -1 11.36 -1 10 C-0.34 10 0.32 10 1 10 C1 10.99 1 11.98 1 13 C1.33 11.68 1.66 10.36 2 9 C2.969375 8.87625 3.93875 8.7525 4.9375 8.625 C5.948125 8.41875 6.95875 8.2125 8 8 C8.33 7.34 8.66 6.68 9 6 C7.9275 6.165 6.855 6.33 5.75 6.5 C2 7 2 7 -2 7 C-2 5.68 -2 4.36 -2 3 C-1.34 3 -0.68 3 0 3 C0 2.01 0 1.02 0 0 Z " fill="#A6BBA1" transform="translate(12,7)"/>
<path d="M0 0 C-0.33 0.99 -0.66 1.98 -1 3 C-2.98 3 -4.96 3 -7 3 C-7 3.99 -7 4.98 -7 6 C-6.01 6.33 -5.02 6.66 -4 7 C-5.32 7 -6.64 7 -8 7 C-8 6.01 -8 5.02 -8 4 C-8.66 4 -9.32 4 -10 4 C-10 5.32 -10 6.64 -10 8 C-7.03 8.33 -4.06 8.66 -1 9 C-1 9.33 -1 9.66 -1 10 C-8.42857143 10.28571429 -8.42857143 10.28571429 -12 8 C-11.51681957 1.47706422 -11.51681957 1.47706422 -9.375 -0.5 C-6.07635587 -1.1944514 -3.28249631 -0.63124929 0 0 Z " fill="#DFBCB9" transform="translate(21,13)"/>
<path d="M0 0 C5.75 -0.125 5.75 -0.125 8 1 C8 1.99 8 2.98 8 4 C5.24921116 4.91692961 3.64051087 5.10886083 0.8125 5.0625 C-1.0746875 5.0315625 -1.0746875 5.0315625 -3 5 C-3 3.68 -3 2.36 -3 1 C-2.34 1 -1.68 1 -1 1 C-1 1.99 -1 2.98 -1 4 C-0.67 2.68 -0.34 1.36 0 0 Z " fill="#D8585C" transform="translate(14,16)"/>
<path d="M0 0 C0 3.96 0 7.92 0 12 C-0.99 11.67 -1.98 11.34 -3 11 C-4.39935013 8.20129973 -4.25265405 6.09501208 -4 3 C-1.7 0 -1.7 0 0 0 Z " fill="#FBF7F4" transform="translate(10,8)"/>
<path d="M0 0 C0.66 0 1.32 0 2 0 C1.6875 3.375 1.6875 3.375 1 7 C0.01 7.66 -0.98 8.32 -2 9 C-1.67 7.35 -1.34 5.7 -1 4 C-2.98 4.33 -4.96 4.66 -7 5 C-7.33 4.01 -7.66 3.02 -8 2 C-6.865625 1.855625 -5.73125 1.71125 -4.5625 1.5625 C-1.19222799 1.38828522 -1.19222799 1.38828522 0 0 Z " fill="#8AA873" transform="translate(22,9)"/>
<path d="M0 0 C0.33 0 0.66 0 1 0 C1.226875 1.093125 1.45375 2.18625 1.6875 3.3125 C3.17913222 7.50327624 4.16415357 8.08207678 8 10 C8 10.66 8 11.32 8 12 C9.98 12 11.96 12 14 12 C14 12.33 14 12.66 14 13 C8.30707666 13.45543387 5.3984985 12.68246386 1 9 C-0.92503419 6.4053887 -1.06492311 5.4761028 -0.625 2.25 C-0.41875 1.5075 -0.2125 0.765 0 0 Z " fill="#6E6A52" transform="translate(5,12)"/>
<path d="M0 0 C2.33944736 0.28730055 4.6739143 0.61936779 7 1 C6.67 1.99 6.34 2.98 6 4 C3.36 4 0.72 4 -2 4 C-1 1 -1 1 0 0 Z " fill="#E7E8E0" transform="translate(14,12)"/>
<path d="M0 0 C6.4 -0.36923077 6.4 -0.36923077 9.4375 1.5 C9.953125 1.995 10.46875 2.49 11 3 C8.00468461 3.99843846 6.82744268 4.00732761 3.8125 3.5625 C2.554375 3.376875 1.29625 3.19125 0 3 C0 2.01 0 1.02 0 0 Z " fill="#8F937C" transform="translate(13,2)"/>
<path d="M0 0 C2.41103827 0.96441531 3.77404758 1.68797047 5.3125 3.8125 C6.17031512 6.54191176 5.75644808 8.27678692 5 11 C4.67 11 4.34 11 4 11 C3.54427083 9.01432292 3.08854167 7.02864583 2.6328125 5.04296875 C2.01992277 2.72257026 2.01992277 2.72257026 0 0 Z " fill="#784A42" transform="translate(22,5)"/>
</svg>
